HIERARCHY
ROOT Hips
{
  OFFSET 50.378 100.696 11.0203
  CHANNELS 6 Xposition Yposition Zposition Zrotation Xrotation Yrotation
  JOINT spine
  {
    OFFSET 0 8.81704 0.507024
    CHANNELS 3 Zrotation Xrotation Yrotation
    JOINT spine1
    {
      OFFSET 0 10.7766 0
      CHANNELS 3 Zrotation Xrotation Yrotation
      JOINT spine2
      {
        OFFSET 0 10.3259 0
        CHANNELS 3 Zrotation Xrotation Yrotation
        JOINT Neck
        {
          OFFSET 0 26.511 1.26395
          CHANNELS 3 Zrotation Xrotation Yrotation
          JOINT Head
          {
            OFFSET 0 8.00966 0
            CHANNELS 3 Zrotation Xrotation Yrotation
            End Site
            {
              OFFSET 0 19.3879 -6.39386
            }
          }
        }
        JOINT RightShoulder
        {
          OFFSET -4.34795 11.1512 -0.605422
          CHANNELS 3 Zrotation Xrotation Yrotation
          JOINT RightArm
          {
            OFFSET 0 14.6258 0
            CHANNELS 3 Zrotation Xrotation Yrotation
            JOINT RightArmRoll
            {
              OFFSET 0 7.3834 0
              CHANNELS 3 Zrotation Xrotation Yrotation
              JOINT RightForeArm
              {
                OFFSET 0 21.5052 0
                CHANNELS 3 Zrotation Xrotation Yrotation
                JOINT RightForeArmRoll
                {
                  OFFSET 0 8.28532 0
                  CHANNELS 3 Zrotation Xrotation Yrotation
                  JOINT RightHand
                  {
                    OFFSET 0 16.6268 0
                    CHANNELS 3 Zrotation Xrotation Yrotation
                    End Site
                    {
                      OFFSET 0 0 0
                    }
                  }
                }
              }
            }
          }
        }
        JOINT LeftShoulder
        {
          OFFSET 4.34795 11.1512 -0.605422
          CHANNELS 3 Zrotation Xrotation Yrotation
          JOINT LeftArm
          {
            OFFSET 0 14.6258 0
            CHANNELS 3 Zrotation Xrotation Yrotation
            JOINT LeftArmRoll
            {
              OFFSET 0 7.3834 0
              CHANNELS 3 Zrotation Xrotation Yrotation
              JOINT LeftForeArm
              {
                OFFSET 0 21.5052 0
                CHANNELS 3 Zrotation Xrotation Yrotation
                JOINT LeftForeArmRoll
                {
                  OFFSET 0 8.28532 0
                  CHANNELS 3 Zrotation Xrotation Yrotation
                  JOINT LeftHand
                  {
                    OFFSET 0 16.6268 0
                    CHANNELS 3 Zrotation Xrotation Yrotation
                    End Site
                    {
                      OFFSET 0 0 0
                    }
                  }
                }
              }
            }
          }
        }
      }
    }
  }
  JOINT RightUpLeg
  {
    OFFSET -7.8151 -1.43309 -1.20217
    CHANNELS 3 Zrotation Xrotation Yrotation
    JOINT RightUpLegRoll
    {
      OFFSET 0 19.4959 0
      CHANNELS 3 Zrotation Xrotation Yrotation
      JOINT RightLeg
      {
        OFFSET 0 -24.1427 0
        CHANNELS 3 Zrotation Xrotation Yrotation
        JOINT RightLegRoll
        {
          OFFSET 0 24.2217 0
          CHANNELS 3 Zrotation Xrotation Yrotation
          JOINT RightFoot
          {
            OFFSET 0 20.1605 0
            CHANNELS 3 Zrotation Xrotation Yrotation
            JOINT RightToeBase
            {
              OFFSET 0 16.8532 0
              CHANNELS 3 Zrotation Xrotation Yrotation
              End Site
              {
                OFFSET 0.00714343 8.16186 -0.940781
              }
            }
          }
        }
      }
    }
  }
  JOINT LeftUpLeg
  {
    OFFSET 7.8151 -1.43309 -1.20217
    CHANNELS 3 Zrotation Xrotation Yrotation
    JOINT LeftUpLegRoll
    {
      OFFSET 0 19.496 0
      CHANNELS 3 Zrotation Xrotation Yrotation
      JOINT LeftLeg
      {
        OFFSET 0 24.1426 0
        CHANNELS 3 Zrotation Xrotation Yrotation
        JOINT LeftLegRoll
        {
          OFFSET 0 24.4456 0
          CHANNELS 3 Zrotation Xrotation Yrotation
          JOINT LeftFoot
          {
            OFFSET 0 19.9366 0
            CHANNELS 3 Zrotation Xrotation Yrotation
            JOINT LeftToeBase
            {
              OFFSET 0 16.8532 0
              CHANNELS 3 Zrotation Xrotation Yrotation
              End Site
              {
                OFFSET -0.0320138 8.16187 -0.940781
              }
            }
          }
        }
      }
    }
  }
}
MOTION
Frames: 6
Frame Time: 0.00208333
51.0474 100.54 13.4141 0.260776 1.587 2.0169 -0.224746 -3.21774 -0.0906388 -0.452552 -2.43236 -0.165453 -0.450012 -0.787311 -0.157837 -5.3981 14.8119 2.49667 -2.01635 4.36347 0.985534 11.605 -13.4293 -10.9922 -5.25476 31.1891 86.5402 -4.77083e-015 -6.36111e-015 3.18055e-015 -4.36544 39.1754 3.79314 2.73931e-005 -5.7942e-007 -3 8.02891 -4.95145 0.697695 -25.8538 -14.9309 11.6836 17.153 27.48 -93.5891 2.61305e-006 -7.93192e-007 3.31033e-006 9.19637 38.3738 -3.68276 3.00435e-006 2.11631e-006 2.99999 -8.02892 -4.95147 -0.697686 178.287 1.10288 -1.23192 180 7.01561e-015 178.984 179.399 4.01216 179.719 -2.19996e-006 -5.43914e-006 0.0351754 -18.5708 67.8639 19.4338 8.13639 25.2313 -3.48877 -177.225 0.985083 2.38226 4.54188e-006 -4.6773e-006 -1.03728 -2.471 -5.29939 0.105159 3.15894e-006 -3.53574e-006 -0.0706667 18.9366 68.2912 -19.7884 -8.16366 25.6316 2.94199 
51.0498 100.539 13.411 0.26739 1.59895 1.99481 -0.225376 -3.22443 -0.0910434 -0.453751 -2.44574 -0.16697 -0.451201 -0.800697 -0.159332 -5.3089 14.919 2.47175 -2.19267 4.24564 0.961318 11.5373 -13.4219 -10.987 -5.35501 31.2457 86.5616 -1.27222e-014 -1.03368e-014 7.95139e-015 -4.34592 39.092 3.76831 2.73931e-005 -5.7942e-007 -3 8.02891 -4.95145 0.697695 -25.8592 -14.9522 11.7075 17.2181 27.4843 -93.6425 2.61305e-006 -7.93192e-007 3.31033e-006 9.20087 38.3728 -3.68412 3.00435e-006 2.11631e-006 2.99999 -8.02892 -4.95147 -0.697686 178.278 1.11472 -1.22745 180 7.01561e-015 178.984 179.395 4.00738 179.72 -2.19996e-006 -5.43914e-006 0.0351789 -18.5701 67.863 19.433 8.13644 25.232 -3.4866 -177.233 0.976709 2.38744 4.54188e-006 -4.6773e-006 -1.03735 -2.47159 -5.27055 0.105442 3.15894e-006 -3.53574e-006 -0.0703895 18.9262 68.2792 -19.7771 -8.16377 25.6332 2.93987 
51.0537 100.539 13.429 0.274299 1.61075 1.9716 -0.225938 -3.23125 -0.0911765 -0.454832 -2.45937 -0.168021 -0.452284 -0.814328 -0.160365 -5.19378 15.053 2.43756 -2.41057 4.09495 0.929136 11.4641 -13.4147 -10.9825 -5.44334 31.3069 86.58 -3.18055e-014 -4.77083e-015 2.38542e-014 -4.32618 39.0098 3.7436 2.73931e-005 -5.7942e-007 -3 8.02891 -4.95145 0.697695 -25.8685 -14.9736 11.7312 17.2835 27.49 -93.6934 2.61305e-006 -7.93192e-007 3.31033e-006 9.20372 38.371 -3.68459 3.00435e-006 2.11631e-006 2.99999 -8.02892 -4.95147 -0.697686 178.269 1.12728 -1.22287 180 7.01561e-015 178.984 179.391 4.00392 179.72 -2.19996e-006 -5.43914e-006 0.0351825 -18.5696 67.8625 19.4325 8.13649 25.2326 -3.48444 -177.242 0.967351 2.39303 4.54188e-006 -4.6773e-006 -1.03743 -2.47199 -5.24068 0.105828 3.15894e-006 -3.53574e-006 -0.0701296 18.9155 68.2667 -19.7655 -8.16389 25.6349 2.93764 
51.0539 100.54 13.4275 0.281424 1.62239 1.94757 -0.226447 -3.23814 -0.091066 -0.455825 -2.47315 -0.168644 -0.453288 -0.828109 -0.160971 -5.05648 15.2092 2.39541 -2.6636 3.91695 0.890225 11.3862 -13.4078 -10.9789 -5.52077 31.3721 86.5955 -1.74931e-014 3.22031e-014 1.11319e-014 -4.3063 38.9288 3.71904 2.73931e-005 -5.7942e-007 -3 8.02891 -4.95145 0.697695 -25.8811 -14.995 11.7544 17.3483 27.4967 -93.7414 2.61305e-006 -7.93192e-007 3.31033e-006 9.20497 38.3684 -3.68422 3.00435e-006 2.11631e-006 2.99999 -8.02892 -4.95147 -0.697686 178.26 1.14045 -1.21819 180 7.01561e-015 178.984 179.387 4.00163 179.721 -2.19996e-006 -5.43914e-006 0.0351861 -18.5694 67.8622 19.4323 8.13649 25.2326 -3.48444 -177.25 0.957321 2.39896 4.54188e-006 -4.6773e-006 -1.03751 -2.4722 -5.21028 0.106299 3.15894e-006 -3.53574e-006 -0.0698862 18.9046 68.2541 -19.7538 -8.16401 25.6366 2.93534 
51.0555 100.538 13.4113 0.288684 1.63385 1.92299 -0.226919 -3.24506 -0.0907397 -0.456757 -2.48699 -0.168874 -0.454241 -0.841944 -0.161185 -4.90076 15.3829 2.34661 -2.94527 3.71718 0.845823 11.3049 -13.4013 -10.976 -5.5883 31.4405 86.6083 -7.95139e-015 1.07344e-014 9.54166e-015 -4.28639 38.8488 3.69464 2.73931e-005 -5.7942e-007 -3 8.02891 -4.95145 0.697695 -25.8964 -15.0161 11.7771 17.4121 27.5043 -93.7861 2.61305e-006 -7.93192e-007 3.31033e-006 9.20473 38.3649 -3.68303 3.00435e-006 2.11631e-006 2.99999 -8.02892 -4.95147 -0.697686 178.251 1.15412 -1.21347 180 7.01561e-015 178.984 179.383 4.00041 179.721 -2.19996e-006 -5.43914e-006 0.0351897 -18.5694 67.8622 19.4323 8.13649 25.2326 -3.48444 -177.26 0.946932 2.40515 4.54188e-006 -4.6773e-006 -1.03758 -2.47223 -5.1798 0.106841 3.15894e-006 -3.53574e-006 -0.0696582 18.8937 68.2414 -19.742 -8.16413 25.6384 2.93298 
51.0556 100.539 13.4187 0.295998 1.64512 1.89816 -0.227369 -3.25195 -0.0902254 -0.457656 -2.50078 -0.168748 -0.455169 -0.855735 -0.161043 -4.73039 15.5694 2.29248 -3.2491 3.50118 0.79716 11.2212 -13.3951 -10.9739 -5.64695 31.5111 86.6185 -1.90833e-014 -1.27222e-014 1.43125e-014 -4.26653 38.7696 3.67046 2.73931e-005 -5.7942e-007 -3 8.02891 -4.95145 0.697695 -25.9138 -15.0369 11.7993 17.4742 27.5125 -93.8272 2.61305e-006 -7.93192e-007 3.31033e-006 9.20307 38.3606 -3.68106 3.00435e-006 2.11631e-006 2.99999 -8.02892 -4.95147 -0.697686 178.242 1.16818 -1.20873 180 7.01561e-015 178.984 179.379 4.00007 179.721 -2.19996e-006 -5.43914e-006 0.0351934 -18.5696 67.8624 19.4325 8.13649 25.2326 -3.48444 -177.269 0.936494 2.41153 4.54188e-006 -4.6773e-006 -1.03766 -2.47211 -5.14973 0.107436 3.15894e-006 -3.53574e-006 -0.0694447 18.8829 68.2289 -19.7304 -8.16426 25.6403 2.93059 
